# xmcd
#
# Track frame offsets:
#	150
#	21582
#	42011
#	66012
#	90886
#	110181
#	126873
#	147490
#	168129
#	181734
#	200027
#	218130
#	236904
#	250345
#	264692
#
# Disc length: 3755 seconds
#
# Revision: 2
# Processed by: cddbd v1.5.2PL0 Copyright (c) Steve Scherf et al.
# Submitted via: audiograbber 1.83.01
#
DISCID=de0ea90f
DTITLE=Various Artist - SFMW879
DYEAR=2006
DGENRE=karaoke cd+g
TTITLE0=Extreme - Get The Funk Out
TTITLE1=Mock Turtles - Can You Dig It?
TTITLE2=AC/DC - It's A Long Way To The Top
TTITLE3=Kate Bush - Cloudbusting
TTITLE4=Stakka Bo - Here We Go
TTITLE5=Kiss - I Love It Loud
TTITLE6=The Hooters - Satellite
TTITLE7=Lupe Flasco - Kick Push
TTITLE8=The Stranglers - Strange Little Girl
TTITLE9=Nazareth - Broken Down Angel
TTITLE10=Electric Light Orchestra - Turn To Stone
TTITLE11=Gorillaz - El Manana
TTITLE12=Connie Francis - Everybody's Somebody's Fool
TTITLE13=Johnny Cash - Folsom Prison Blues
TTITLE14=Olivia Newton John - A Little More Love
EXTD=
EXTT0=
EXTT1=
EXTT2=
EXTT3=
EXTT4=
EXTT5=
EXTT6=
EXTT7=
EXTT8=
EXTT9=
EXTT10=
EXTT11=
EXTT12=
EXTT13=
EXTT14=
PLAYORDER=
